<svg width="25" height="30" viewBox="0 0 25 30" fill="none" xmlns="http://www.w3.org/2000/svg">
<path d="M23.3315 12.6738C23.9591 14.1368 24.2894 15.7084 24.3034 17.2984C24.3173 18.8884 24.0148 20.4655 23.413 21.9391C22.8112 23.4127 21.9221 24.7537 20.7968 25.8852C19.6714 27.0167 18.332 27.9163 16.8553 28.5324L13.7148 25.4147C14.8217 25.2006 15.8725 24.7628 16.8017 24.1286C17.731 23.4944 18.519 22.6772 19.1167 21.7279C19.7144 20.7785 20.1091 19.7173 20.2762 18.6102C20.4434 17.503 20.3794 16.3736 20.0883 15.292L23.3315 12.6738Z" fill="black"/>
<path d="M23.3315 12.6738C23.9591 14.1368 24.2894 15.7084 24.3034 17.2984C24.3173 18.8884 24.0148 20.4655 23.413 21.9391C22.8112 23.4127 21.9221 24.7537 20.7968 25.8852C19.6714 27.0167 18.332 27.9163 16.8553 28.5324L13.7148 25.4147C14.8217 25.2006 15.8725 24.7628 16.8017 24.1286C17.731 23.4944 18.519 22.6772 19.1167 21.7279C19.7144 20.7785 20.1091 19.7173 20.2762 18.6102C20.4434 17.503 20.3794 16.3736 20.0883 15.292L23.3315 12.6738Z" fill="white"/>
<path d="M19.2481 5.28002L17.843 6.67491L1.59452 22.8053C0.343648 20.3872 -0.0442974 17.6195 0.494052 14.9542L9.93439 5.58415L14.7453 0.808228L19.2481 5.28002Z" fill="black"/>
<path d="M19.2481 5.28002L17.843 6.67491L1.59452 22.8053C0.343648 20.3872 -0.0442974 17.6195 0.494052 14.9542L9.93439 5.58415L14.7453 0.808228L19.2481 5.28002Z" fill="white"/>
<path d="M4.69257 26.6011L2.9777 24.8987L2.01758 23.5531L13.0752 12.5757L17.5798 17.0475L6.65046 27.8957L4.69257 26.6011Z" fill="black"/>
<path d="M4.69257 26.6011L2.9777 24.8987L2.01758 23.5531L13.0752 12.5757L17.5798 17.0475L6.65046 27.8957L4.69257 26.6011Z" fill="white"/>
<path d="M15.8994 28.7656C13.1133 29.6202 10.1101 29.4483 7.44141 28.2814L11.4257 24.3227L15.8994 28.7656Z" fill="#B2B2B2"/>
<path d="M15.8994 28.7656C13.1133 29.6202 10.1101 29.4483 7.44141 28.2814L11.4257 24.3227L15.8994 28.7656Z" fill="white"/>
</svg>
