<svg width="2607" height="529" viewBox="0 0 2607 529" fill="none" xmlns="http://www.w3.org/2000/svg">
<path d="M419.8 220.299C431.218 247.46 437.228 276.638 437.482 306.158C437.737 335.678 432.232 364.958 421.283 392.317C410.335 419.675 394.159 444.573 373.684 465.58C353.21 486.587 328.84 503.289 301.975 514.727L244.837 456.844C264.976 452.869 284.092 444.742 300.999 432.967C317.906 421.191 332.243 406.02 343.117 388.395C353.992 370.77 361.173 351.067 364.214 330.512C367.255 309.957 366.091 288.988 360.794 268.908L419.8 220.299Z" fill="url(#paint0_linear_1655_2822)"/>
<path d="M419.8 220.299C431.218 247.46 437.228 276.638 437.482 306.158C437.737 335.678 432.232 364.958 421.283 392.317C410.335 419.675 394.159 444.573 373.684 465.58C353.21 486.587 328.84 503.289 301.975 514.727L244.837 456.844C264.976 452.869 284.092 444.742 300.999 432.967C317.906 421.191 332.243 406.02 343.117 388.395C353.992 370.77 361.173 351.067 364.214 330.512C367.255 309.957 366.091 288.988 360.794 268.908L419.8 220.299Z" fill="black" fill-opacity="0.2"/>
<path d="M345.506 83.0226L319.941 108.92L24.3197 408.394C1.56168 363.5 -5.49653 312.115 4.2981 262.632L176.054 88.6689L263.582 0L345.506 83.0226Z" fill="url(#paint1_linear_1655_2822)"/>
<path d="M345.506 83.0226L319.941 108.92L24.3197 408.394C1.56168 363.5 -5.49653 312.115 4.2981 262.632L176.054 88.6689L263.582 0L345.506 83.0226Z" fill="black" fill-opacity="0.2"/>
<path d="M80.6787 478.863L49.4787 447.257L32.0105 422.274L233.191 218.471L315.146 301.494L116.3 502.899L80.6787 478.863Z" fill="url(#paint2_linear_1655_2822)"/>
<path d="M80.6787 478.863L49.4787 447.257L32.0105 422.274L233.191 218.471L315.146 301.494L116.3 502.899L80.6787 478.863Z" fill="black" fill-opacity="0.2"/>
<path d="M284.569 519.05C233.879 534.917 179.24 531.725 130.687 510.06L203.175 436.564L284.569 519.05Z" fill="#B2B2B2"/>
<path d="M284.569 519.05C233.879 534.917 179.24 531.725 130.687 510.06L203.175 436.564L284.569 519.05Z" fill="black" fill-opacity="0.2"/>
<path d="M558.08 199.099H633.168V213.972H580.933V256.05H621.923V270.741H580.933V331.5H560.62V210.707L558.08 199.099ZM673.753 209.981C673.753 213.367 672.604 216.269 670.307 218.687C668.009 221.106 665.107 222.315 661.601 222.315C658.215 222.315 655.313 221.106 652.895 218.687C650.598 216.269 649.449 213.367 649.449 209.981C649.449 206.596 650.598 203.754 652.895 201.457C655.313 199.039 658.215 197.83 661.601 197.83C664.986 197.83 667.828 199.039 670.125 201.457C672.544 203.754 673.753 206.596 673.753 209.981ZM670.669 241.359V331.5H652.714V251.697L650.537 241.359H670.669ZM711.836 239.726C712.683 241.661 713.348 243.717 713.831 245.893C714.436 247.948 714.859 250.004 715.101 252.06C718.728 248.553 723.021 245.53 727.978 242.991C732.936 240.331 737.954 239.001 743.032 239.001C749.803 239.001 755.184 240.391 759.174 243.172C763.164 245.832 766.006 249.581 767.699 254.417C769.391 259.133 770.238 264.635 770.238 270.922V331.5H752.463V274.731C752.463 271.345 752.222 268.081 751.738 264.937C751.254 261.793 750.045 259.194 748.111 257.138C746.176 255.082 743.093 254.055 738.861 254.055C736.321 254.055 733.601 254.659 730.699 255.868C727.918 256.957 725.258 258.347 722.719 260.04C720.3 261.612 718.124 263.305 716.189 265.118V331.5H698.415V267.295C698.415 264.997 698.234 262.277 697.871 259.133C697.629 255.868 697.085 252.725 696.238 249.702C695.392 246.558 694.183 244.019 692.611 242.084L711.836 239.726ZM829.524 239.182C839.197 239.182 846.512 241.721 851.469 246.8C856.548 251.878 859.087 259.194 859.087 268.746V311.731C859.087 314.633 859.571 316.628 860.538 317.716C861.626 318.683 862.896 319.167 864.347 319.167C865.435 319.167 866.584 319.046 867.793 318.804C869.002 318.441 870.151 318.018 871.239 317.535L874.685 328.417C872.388 329.747 869.667 330.835 866.523 331.681C863.379 332.649 860.357 333.132 857.455 333.132C853.706 333.132 850.502 332.226 847.842 330.412C845.303 328.598 843.67 325.394 842.945 320.799C839.438 324.91 835.327 328.054 830.612 330.231C826.017 332.407 821.06 333.495 815.739 333.495C808.605 333.495 802.62 331.44 797.784 327.329C792.947 323.097 790.529 317.293 790.529 309.917C790.529 303.267 792.101 297.886 795.244 293.775C798.509 289.543 802.741 286.399 807.94 284.344C813.14 282.167 818.641 280.716 824.445 279.991C830.37 279.144 835.932 278.721 841.131 278.721V268.202C841.131 264.816 840.708 261.975 839.862 259.677C839.015 257.38 837.504 255.627 835.327 254.417C833.272 253.087 830.491 252.422 826.984 252.422C822.631 252.422 818.339 253.45 814.107 255.506C809.875 257.44 805.885 259.919 802.136 262.942L794.156 250.79C799.235 246.921 804.797 244.019 810.842 242.084C817.009 240.15 823.236 239.182 829.524 239.182ZM841.131 291.78C838.229 291.78 834.904 291.961 831.156 292.324C827.528 292.566 824.022 293.231 820.636 294.319C817.251 295.286 814.47 296.919 812.293 299.216C810.117 301.513 809.029 304.657 809.029 308.647C809.029 312.154 810.298 314.814 812.837 316.628C815.377 318.32 818.339 319.167 821.725 319.167C825.715 319.167 829.1 318.079 831.881 315.902C834.783 313.605 837.02 310.763 838.592 307.378C840.285 303.992 841.131 300.486 841.131 296.858V291.78ZM900.646 239.726C901.493 241.661 902.158 243.717 902.642 245.893C903.246 247.948 903.669 250.004 903.911 252.06C907.539 248.553 911.831 245.53 916.789 242.991C921.746 240.331 926.764 239.001 931.842 239.001C938.614 239.001 943.994 240.391 947.984 243.172C951.975 245.832 954.816 249.581 956.509 254.417C958.202 259.133 959.048 264.635 959.048 270.922V331.5H941.274V274.731C941.274 271.345 941.032 268.081 940.548 264.937C940.064 261.793 938.855 259.194 936.921 257.138C934.986 255.082 931.903 254.055 927.671 254.055C925.132 254.055 922.411 254.659 919.509 255.868C916.728 256.957 914.068 258.347 911.529 260.04C909.11 261.612 906.934 263.305 904.999 265.118V331.5H887.225V267.295C887.225 264.997 887.044 262.277 886.681 259.133C886.439 255.868 885.895 252.725 885.049 249.702C884.202 246.558 882.993 244.019 881.421 242.084L900.646 239.726ZM1022.87 239.182C1027.34 239.182 1032 239.968 1036.83 241.54C1041.67 242.991 1046.14 245.167 1050.25 248.069L1041.01 260.04C1037.86 257.501 1034.72 255.627 1031.57 254.417C1028.55 253.087 1025.35 252.422 1021.96 252.422C1018.21 252.422 1014.89 253.39 1011.99 255.324C1009.08 257.138 1006.61 259.617 1004.55 262.76C1002.61 265.904 1001.1 269.532 1000.02 273.643C999.048 277.633 998.564 281.804 998.564 286.157C998.564 297.04 1000.92 305.443 1005.64 311.368C1010.35 317.293 1016.58 320.255 1024.32 320.255C1027.7 320.255 1031.03 319.711 1034.29 318.623C1037.56 317.535 1041.07 315.963 1044.81 313.907L1049.89 324.971C1045.06 327.873 1040.4 330.049 1035.93 331.5C1031.45 333.072 1026.37 333.858 1020.69 333.858C1012.23 333.858 1004.85 331.863 998.564 327.873C992.398 323.883 987.561 318.32 984.055 311.187C980.669 303.932 978.976 295.528 978.976 285.976C978.976 276.545 980.911 268.323 984.78 261.309C988.649 254.296 993.849 248.855 1000.38 244.986C1007.03 241.117 1014.52 239.182 1022.87 239.182ZM1102.71 239.001C1110.45 239.001 1116.85 240.633 1121.93 243.898C1127.13 247.163 1130.94 251.515 1133.36 256.957C1135.9 262.398 1137.17 268.504 1137.17 275.275C1137.17 277.089 1137.05 278.963 1136.8 280.898C1136.68 282.832 1136.44 284.767 1136.08 286.701H1079.67C1079.67 297.463 1082.09 305.745 1086.93 311.549C1091.76 317.353 1098.23 320.255 1106.33 320.255C1109.84 320.255 1113.53 319.711 1117.4 318.623C1121.27 317.414 1125.32 315.66 1129.55 313.363L1135.35 323.701C1131.12 327.087 1126.16 329.626 1120.48 331.319C1114.8 332.891 1109.3 333.677 1103.98 333.677C1096.96 333.677 1090.74 332.467 1085.3 330.049C1079.85 327.631 1075.32 324.306 1071.69 320.074C1068.06 315.721 1065.28 310.763 1063.35 305.201C1061.54 299.518 1060.63 293.533 1060.63 287.246C1060.63 281.079 1061.54 275.154 1063.35 269.471C1065.16 263.667 1067.82 258.468 1071.33 253.873C1074.96 249.279 1079.37 245.651 1084.57 242.991C1089.77 240.331 1095.81 239.001 1102.71 239.001ZM1101.44 251.878C1097.45 251.878 1093.94 253.027 1090.92 255.324C1088.02 257.501 1085.66 260.342 1083.84 263.849C1082.15 267.234 1081.06 270.68 1080.58 274.187H1118.49C1118.85 269.834 1118.37 265.965 1117.03 262.579C1115.83 259.194 1113.89 256.594 1111.23 254.78C1108.57 252.846 1105.31 251.878 1101.44 251.878ZM1292.71 272.917C1287.15 292.626 1278.87 307.62 1267.86 317.897C1256.98 328.054 1243.8 333.132 1228.33 333.132C1219.98 333.132 1212.91 331.561 1207.11 328.417C1201.3 325.152 1196.89 320.86 1193.87 315.539C1190.84 310.219 1189.33 304.355 1189.33 297.946C1189.33 288.999 1192.17 280.837 1197.86 273.461C1203.66 266.086 1212.06 260.342 1223.07 256.231L1227.42 268.202C1221.49 270.378 1216.84 273.764 1213.45 278.358C1210.07 282.832 1208.38 288.334 1208.38 294.863C1208.38 299.337 1209.28 303.569 1211.1 307.559C1212.91 311.428 1215.51 314.572 1218.89 316.99C1222.4 319.288 1226.57 320.436 1231.41 320.436C1237.82 320.436 1244.17 318.562 1250.45 314.814C1256.86 311.066 1262.54 305.443 1267.5 297.946C1272.46 290.45 1275.91 281.018 1277.84 269.653L1292.71 272.917ZM1307.04 331.863C1304.62 332.347 1302.26 332.649 1299.97 332.77C1297.79 333.012 1295.61 333.132 1293.44 333.132C1285.46 333.132 1278.02 332.105 1271.13 330.049C1264.36 327.994 1258.19 324.971 1252.63 320.981C1244.65 315.177 1237.33 307.801 1230.68 298.853C1224.03 289.906 1218.71 280.051 1214.72 269.29C1210.85 258.408 1208.92 247.404 1208.92 236.28C1208.92 230.235 1209.64 224.854 1211.1 220.138C1212.67 215.423 1214.78 211.372 1217.44 207.986C1220.22 204.48 1223.55 201.82 1227.42 200.006C1231.29 198.192 1235.58 197.285 1240.3 197.285C1247.91 197.285 1253.9 199.401 1258.25 203.633C1262.61 207.865 1264.78 213.488 1264.78 220.501C1264.78 226.184 1263.39 232.048 1260.61 238.094C1257.95 244.14 1253.9 249.823 1248.46 255.143C1243.02 260.342 1236.25 264.635 1228.14 268.02L1224.52 255.868C1230.08 253.692 1234.49 250.609 1237.76 246.618C1241.14 242.628 1243.56 238.457 1245.01 234.104C1246.58 229.63 1247.37 225.579 1247.37 221.952C1247.37 218.204 1246.7 215.302 1245.37 213.246C1244.04 211.07 1241.99 209.981 1239.21 209.981C1235.34 209.981 1232.44 211.977 1230.5 215.967C1228.57 219.957 1227.6 225.7 1227.6 233.197C1227.6 243.475 1229.35 253.511 1232.86 263.305C1236.37 273.099 1241.02 281.986 1246.83 289.966C1252.63 297.946 1258.98 304.415 1265.87 309.373C1270.46 312.517 1275.12 314.935 1279.84 316.628C1284.55 318.2 1289.39 318.986 1294.35 318.986C1296.16 318.986 1297.91 318.925 1299.6 318.804C1301.42 318.562 1303.23 318.26 1305.05 317.897L1307.04 331.863ZM1415.25 333.677C1404.73 333.677 1395.6 331.923 1387.86 328.417C1380.24 324.789 1373.83 319.892 1368.63 313.726C1363.56 307.438 1359.75 300.244 1357.21 292.143C1354.79 284.041 1353.58 275.456 1353.58 266.388C1353.58 257.078 1354.97 248.251 1357.75 239.908C1360.53 231.565 1364.52 224.189 1369.72 217.78C1375.04 211.372 1381.57 206.354 1389.31 202.727C1397.17 198.978 1406.12 197.104 1416.15 197.104C1420.51 197.104 1425.22 197.588 1430.3 198.555C1435.5 199.522 1440.52 201.034 1445.35 203.089C1450.19 205.024 1454.12 207.563 1457.14 210.707L1446.26 223.947C1443.96 221.287 1441.12 219.11 1437.74 217.418C1434.35 215.604 1430.78 214.213 1427.04 213.246C1423.29 212.279 1419.72 211.795 1416.34 211.795C1409.32 211.795 1403.28 213.307 1398.2 216.329C1393.12 219.352 1388.89 223.463 1385.5 228.663C1382.24 233.862 1379.76 239.666 1378.07 246.074C1376.49 252.483 1375.71 259.012 1375.71 265.662C1375.71 276.545 1377.34 285.916 1380.61 293.775C1383.99 301.634 1388.77 307.68 1394.93 311.912C1401.1 316.144 1408.42 318.26 1416.88 318.26C1421.96 318.26 1427.4 317.595 1433.2 316.265C1439.01 314.814 1445.05 312.456 1451.34 309.191L1457.69 320.799C1454.67 322.976 1451.46 324.85 1448.08 326.422C1444.69 327.994 1441.12 329.324 1437.37 330.412C1433.75 331.5 1430.06 332.286 1426.31 332.77C1422.56 333.374 1418.87 333.677 1415.25 333.677ZM1505.64 333.858C1496.69 333.858 1489.14 331.681 1482.97 327.329C1476.8 322.976 1472.09 317.293 1468.82 310.28C1465.68 303.146 1464.11 295.407 1464.11 287.064C1464.11 280.777 1465.08 274.791 1467.01 269.108C1468.95 263.305 1471.73 258.166 1475.35 253.692C1479.1 249.218 1483.58 245.712 1488.77 243.172C1494.1 240.512 1500.08 239.182 1506.73 239.182C1515.8 239.182 1523.42 241.298 1529.58 245.53C1535.75 249.762 1540.41 255.445 1543.55 262.579C1546.69 269.713 1548.26 277.512 1548.26 285.976C1548.26 292.264 1547.3 298.309 1545.36 304.113C1543.43 309.796 1540.65 314.874 1537.02 319.348C1533.51 323.701 1529.1 327.208 1523.78 329.868C1518.46 332.528 1512.41 333.858 1505.64 333.858ZM1505.82 320.981C1510.3 320.981 1514.05 319.892 1517.07 317.716C1520.09 315.539 1522.45 312.698 1524.14 309.191C1525.96 305.685 1527.23 301.937 1527.95 297.946C1528.68 293.956 1529.04 290.148 1529.04 286.52C1529.04 282.772 1528.68 278.902 1527.95 274.912C1527.35 270.922 1526.26 267.174 1524.69 263.667C1523.11 260.161 1520.82 257.38 1517.79 255.324C1514.89 253.148 1511.14 252.06 1506.55 252.06C1502.08 252.06 1498.33 253.148 1495.3 255.324C1492.4 257.501 1490.04 260.342 1488.23 263.849C1486.54 267.355 1485.33 271.164 1484.6 275.275C1483.88 279.265 1483.52 283.014 1483.52 286.52C1483.52 290.027 1483.82 293.775 1484.42 297.765C1485.15 301.755 1486.36 305.564 1488.05 309.191C1489.74 312.698 1492.04 315.539 1494.94 317.716C1497.84 319.892 1501.47 320.981 1505.82 320.981ZM1581.67 239.726C1582.52 241.661 1583.19 243.717 1583.67 245.893C1584.27 247.948 1584.7 250.004 1584.94 252.06C1588.57 248.553 1592.86 245.53 1597.82 242.991C1602.77 240.331 1607.79 239.001 1612.87 239.001C1619.64 239.001 1625.02 240.391 1629.01 243.172C1633 245.832 1635.84 249.581 1637.54 254.417C1639.23 259.133 1640.08 264.635 1640.08 270.922V331.5H1622.3V274.731C1622.3 271.345 1622.06 268.081 1621.58 264.937C1621.09 261.793 1619.88 259.194 1617.95 257.138C1616.01 255.082 1612.93 254.055 1608.7 254.055C1606.16 254.055 1603.44 254.659 1600.54 255.868C1597.76 256.957 1595.1 258.347 1592.56 260.04C1590.14 261.612 1587.96 263.305 1586.03 265.118V331.5H1568.25V267.295C1568.25 264.997 1568.07 262.277 1567.71 259.133C1567.47 255.868 1566.92 252.725 1566.08 249.702C1565.23 246.558 1564.02 244.019 1562.45 242.084L1581.67 239.726ZM1697.37 239.182C1701.6 239.182 1705.89 239.666 1710.24 240.633C1714.72 241.601 1718.71 243.112 1722.21 245.167L1715.87 258.226C1713.33 256.171 1710.42 254.599 1707.16 253.511C1704.02 252.422 1700.87 251.878 1697.73 251.878C1693.86 251.878 1690.41 252.785 1687.39 254.599C1684.37 256.412 1682.86 259.254 1682.86 263.123C1682.86 265.662 1683.46 267.778 1684.67 269.471C1685.88 271.164 1687.51 272.615 1689.57 273.824C1691.74 275.033 1694.04 276.182 1696.46 277.27C1699.48 278.6 1702.5 279.991 1705.53 281.442C1708.67 282.893 1711.57 284.646 1714.23 286.701C1716.89 288.757 1719.07 291.296 1720.76 294.319C1722.46 297.342 1723.3 301.151 1723.3 305.745C1723.3 312.033 1721.73 317.293 1718.59 321.525C1715.44 325.636 1711.33 328.719 1706.25 330.775C1701.3 332.83 1695.91 333.858 1690.11 333.858C1685.27 333.858 1680.26 333.193 1675.06 331.863C1669.98 330.533 1665.38 328.659 1661.27 326.24L1668.17 313.544C1671.19 315.6 1674.45 317.353 1677.96 318.804C1681.59 320.134 1685.15 320.799 1688.66 320.799C1692.77 320.799 1696.4 319.771 1699.54 317.716C1702.69 315.66 1704.26 312.577 1704.26 308.466C1704.26 305.564 1703.41 303.206 1701.72 301.393C1700.15 299.458 1698.03 297.826 1695.37 296.495C1692.71 295.045 1689.87 293.714 1686.85 292.505C1683.22 290.813 1679.65 288.999 1676.15 287.064C1672.64 285.009 1669.74 282.349 1667.44 279.084C1665.14 275.819 1663.99 271.527 1663.99 266.207C1663.99 260.161 1665.57 255.143 1668.71 251.153C1671.97 247.163 1676.15 244.2 1681.22 242.266C1686.42 240.21 1691.8 239.182 1697.37 239.182ZM1761.37 241.359V297.584C1761.37 300.727 1761.61 303.992 1762.1 307.378C1762.7 310.642 1763.97 313.363 1765.91 315.539C1767.84 317.716 1770.86 318.804 1774.97 318.804C1778.96 318.804 1782.65 317.958 1786.04 316.265C1789.42 314.572 1792.14 312.154 1794.2 309.01C1796.26 305.866 1797.28 302.239 1797.28 298.128V251.697C1797.28 251.576 1797.1 250.73 1796.74 249.158C1796.38 247.586 1796.01 245.953 1795.65 244.261C1795.41 242.568 1795.23 241.601 1795.11 241.359H1815.42V311.549C1815.42 314.209 1815.84 316.144 1816.69 317.353C1817.54 318.562 1818.87 319.167 1820.68 319.167C1822.37 319.167 1824.67 318.623 1827.57 317.535L1831.02 328.417C1828.48 329.747 1825.64 330.835 1822.49 331.681C1819.47 332.649 1816.51 333.132 1813.61 333.132C1810.22 333.132 1807.14 332.226 1804.36 330.412C1801.7 328.598 1799.94 325.394 1799.1 320.799C1795.47 324.548 1791.18 327.691 1786.22 330.231C1781.26 332.649 1776.06 333.858 1770.62 333.858C1763.85 333.858 1758.47 332.528 1754.48 329.868C1750.49 327.087 1747.59 323.338 1745.77 318.623C1744.08 313.786 1743.23 308.224 1743.23 301.937V251.697L1741.06 241.359H1761.37ZM1861.8 192.751V331.5H1843.67V202.908L1841.49 192.751H1861.8ZM1913.31 215.423C1912.46 219.534 1911.74 223.826 1911.13 228.3C1910.53 232.774 1910.1 237.127 1909.86 241.359H1932.71L1929.63 254.055H1909.86V308.466C1909.86 310.28 1910.04 312.154 1910.41 314.088C1910.89 315.902 1911.74 317.353 1912.95 318.441C1914.28 319.53 1916.21 320.074 1918.75 320.074C1920.68 320.074 1922.62 319.892 1924.55 319.53C1926.49 319.167 1928.36 318.744 1930.18 318.26L1932.71 329.868C1929.69 330.835 1926.55 331.681 1923.28 332.407C1920.14 333.132 1916.81 333.495 1913.31 333.495C1905.57 333.495 1900.07 331.561 1896.8 327.691C1893.54 323.701 1891.91 317.897 1891.91 310.28V254.055H1877.76V243.717C1881.51 243.596 1884.65 242.628 1887.19 240.815C1889.73 239.001 1891.85 236.703 1893.54 233.922C1895.35 231.021 1896.8 227.998 1897.89 224.854C1898.98 221.589 1899.83 218.445 1900.43 215.423H1913.31ZM1969.74 209.981C1969.74 213.367 1968.59 216.269 1966.3 218.687C1964 221.106 1961.1 222.315 1957.59 222.315C1954.2 222.315 1951.3 221.106 1948.88 218.687C1946.59 216.269 1945.44 213.367 1945.44 209.981C1945.44 206.596 1946.59 203.754 1948.88 201.457C1951.3 199.039 1954.2 197.83 1957.59 197.83C1960.98 197.83 1963.82 199.039 1966.11 201.457C1968.53 203.754 1969.74 206.596 1969.74 209.981ZM1966.66 241.359V331.5H1948.7V251.697L1946.53 241.359H1966.66ZM2007.83 239.726C2008.67 241.661 2009.34 243.717 2009.82 245.893C2010.42 247.948 2010.85 250.004 2011.09 252.06C2014.72 248.553 2019.01 245.53 2023.97 242.991C2028.92 240.331 2033.94 239.001 2039.02 239.001C2045.79 239.001 2051.17 240.391 2055.16 243.172C2059.15 245.832 2061.99 249.581 2063.69 254.417C2065.38 259.133 2066.23 264.635 2066.23 270.922V331.5H2048.45V274.731C2048.45 271.345 2048.21 268.081 2047.73 264.937C2047.24 261.793 2046.03 259.194 2044.1 257.138C2042.16 255.082 2039.08 254.055 2034.85 254.055C2032.31 254.055 2029.59 254.659 2026.69 255.868C2023.91 256.957 2021.25 258.347 2018.71 260.04C2016.29 261.612 2014.11 263.305 2012.18 265.118V331.5H1994.4V267.295C1994.4 264.997 1994.22 262.277 1993.86 259.133C1993.62 255.868 1993.07 252.725 1992.23 249.702C1991.38 246.558 1990.17 244.019 1988.6 242.084L2007.83 239.726ZM2119.35 239.001C2122.97 239.001 2126.3 239.424 2129.32 240.27C2132.46 241.117 2135.73 241.54 2139.11 241.54C2143.95 241.54 2148.91 241.298 2153.99 240.815C2159.07 240.331 2164.2 239.787 2169.4 239.182L2165.78 252.966H2150.9C2150.18 252.966 2149.39 252.906 2148.55 252.785C2147.7 252.664 2146.91 252.543 2146.19 252.422C2148.12 255.082 2149.57 257.863 2150.54 260.765C2151.63 263.546 2152.17 266.509 2152.17 269.653C2152.17 275.819 2150.72 281.321 2147.82 286.157C2144.92 290.873 2140.87 294.561 2135.67 297.221C2130.47 299.881 2124.42 301.211 2117.53 301.211C2114.87 301.211 2112.51 301.997 2110.46 303.569C2108.4 305.141 2107.38 307.378 2107.38 310.28C2107.38 312.214 2107.98 313.665 2109.19 314.633C2110.52 315.479 2112.15 316.023 2114.09 316.265C2116.02 316.386 2118.02 316.446 2120.07 316.446H2133.67C2137.06 316.446 2140.51 316.628 2144.01 316.99C2147.64 317.353 2150.9 318.2 2153.81 319.53C2156.71 320.86 2159.07 322.855 2160.88 325.515C2162.81 328.054 2163.78 331.561 2163.78 336.034C2163.78 342.564 2162.33 348.186 2159.43 352.902C2156.65 357.618 2152.96 361.487 2148.36 364.51C2143.77 367.533 2138.63 369.709 2132.95 371.039C2127.27 372.49 2121.58 373.215 2115.9 373.215C2112.39 373.215 2108.64 372.853 2104.65 372.127C2100.79 371.402 2097.1 370.193 2093.59 368.5C2090.08 366.807 2087.24 364.51 2085.07 361.608C2082.89 358.706 2081.8 354.957 2081.8 350.363C2081.8 345.526 2083.31 341.234 2086.34 337.485C2089.36 333.737 2092.8 330.714 2096.67 328.417V327.873C2094.26 326.784 2092.26 325.092 2090.69 322.794C2089.12 320.376 2088.33 317.837 2088.33 315.177C2088.33 313.726 2088.94 312.335 2090.14 311.005C2091.47 309.675 2093.11 307.922 2095.04 305.745C2096.98 303.448 2099.09 300.304 2101.39 296.314C2096.8 293.533 2093.17 289.906 2090.51 285.432C2087.85 280.837 2086.52 275.759 2086.52 270.197C2086.52 264.151 2087.97 258.77 2090.87 254.055C2093.89 249.339 2097.94 245.651 2103.02 242.991C2108.1 240.331 2113.54 239.001 2119.35 239.001ZM2119.35 250.971C2116.69 250.971 2114.27 251.878 2112.09 253.692C2109.91 255.385 2108.22 257.682 2107.01 260.584C2105.8 263.486 2105.2 266.751 2105.2 270.378C2105.2 274.005 2105.8 277.27 2107.01 280.172C2108.22 283.074 2109.85 285.432 2111.91 287.246C2114.09 288.938 2116.56 289.785 2119.35 289.785C2123.7 289.785 2127.14 287.971 2129.68 284.344C2132.34 280.716 2133.67 276.121 2133.67 270.559C2133.67 266.811 2133.01 263.486 2131.68 260.584C2130.47 257.682 2128.78 255.385 2126.6 253.692C2124.54 251.878 2122.13 250.971 2119.35 250.971ZM2109.19 331.681C2106.89 333.132 2104.78 335.309 2102.84 338.211C2101.03 341.113 2100.12 344.015 2100.12 346.917C2100.12 349.698 2101.15 352.056 2103.2 353.99C2105.26 355.925 2107.68 357.315 2110.46 358.162C2113.36 359.008 2116.08 359.431 2118.62 359.431C2121.64 359.431 2124.79 359.129 2128.05 358.524C2131.44 358.041 2134.52 357.073 2137.3 355.622C2140.2 354.292 2142.5 352.418 2144.19 350C2146.01 347.582 2146.91 344.619 2146.91 341.113C2146.91 338.09 2145.95 335.913 2144.01 334.583C2142.08 333.253 2139.66 332.407 2136.76 332.044C2133.98 331.802 2131.32 331.681 2128.78 331.681H2109.19ZM2275.87 333.677C2265.35 333.677 2256.23 331.923 2248.49 328.417C2240.87 324.789 2234.46 319.892 2229.26 313.726C2224.18 307.438 2220.37 300.244 2217.84 292.143C2215.42 284.041 2214.21 275.456 2214.21 266.388C2214.21 257.078 2215.6 248.251 2218.38 239.908C2221.16 231.565 2225.15 224.189 2230.35 217.78C2235.67 211.372 2242.2 206.354 2249.94 202.727C2257.8 198.978 2266.75 197.104 2276.78 197.104C2281.13 197.104 2285.85 197.588 2290.93 198.555C2296.13 199.522 2301.15 201.034 2305.98 203.089C2310.82 205.024 2314.75 207.563 2317.77 210.707L2306.89 223.947C2304.59 221.287 2301.75 219.11 2298.36 217.418C2294.98 215.604 2291.41 214.213 2287.66 213.246C2283.92 212.279 2280.35 211.795 2276.96 211.795C2269.95 211.795 2263.9 213.307 2258.83 216.329C2253.75 219.352 2249.52 223.463 2246.13 228.663C2242.86 233.862 2240.39 239.666 2238.69 246.074C2237.12 252.483 2236.34 259.012 2236.34 265.662C2236.34 276.545 2237.97 285.916 2241.23 293.775C2244.62 301.634 2249.39 307.68 2255.56 311.912C2261.73 316.144 2269.04 318.26 2277.51 318.26C2282.59 318.26 2288.03 317.595 2293.83 316.265C2299.63 314.814 2305.68 312.456 2311.97 309.191L2318.32 320.799C2315.29 322.976 2312.09 324.85 2308.7 326.422C2305.32 327.994 2301.75 329.324 2298 330.412C2294.37 331.5 2290.69 332.286 2286.94 332.77C2283.19 333.374 2279.5 333.677 2275.87 333.677ZM2352.78 192.751V331.5H2334.64V202.908L2332.47 192.751H2352.78ZM2397.06 241.359V297.584C2397.06 300.727 2397.3 303.992 2397.78 307.378C2398.39 310.642 2399.66 313.363 2401.59 315.539C2403.52 317.716 2406.55 318.804 2410.66 318.804C2414.65 318.804 2418.34 317.958 2421.72 316.265C2425.11 314.572 2427.83 312.154 2429.88 309.01C2431.94 305.866 2432.97 302.239 2432.97 298.128V251.697C2432.97 251.576 2432.79 250.73 2432.42 249.158C2432.06 247.586 2431.7 245.953 2431.34 244.261C2431.09 242.568 2430.91 241.601 2430.79 241.359H2451.1V311.549C2451.1 314.209 2451.53 316.144 2452.37 317.353C2453.22 318.562 2454.55 319.167 2456.36 319.167C2458.06 319.167 2460.35 318.623 2463.26 317.535L2466.7 328.417C2464.16 329.747 2461.32 330.835 2458.18 331.681C2455.16 332.649 2452.19 333.132 2449.29 333.132C2445.91 333.132 2442.82 332.226 2440.04 330.412C2437.38 328.598 2435.63 325.394 2434.78 320.799C2431.15 324.548 2426.86 327.691 2421.9 330.231C2416.95 332.649 2411.75 333.858 2406.31 333.858C2399.53 333.858 2394.15 332.528 2390.16 329.868C2386.17 327.087 2383.27 323.338 2381.46 318.623C2379.77 313.786 2378.92 308.224 2378.92 301.937V251.697L2376.74 241.359H2397.06ZM2522.7 239.545C2528.99 239.545 2534.43 240.875 2539.02 243.535C2543.74 246.195 2547.61 249.823 2550.63 254.417C2553.77 259.012 2556.13 264.03 2557.7 269.471C2559.27 274.912 2560.06 280.414 2560.06 285.976C2560.06 292.143 2559.15 298.128 2557.34 303.932C2555.65 309.615 2553.05 314.693 2549.54 319.167C2546.16 323.641 2541.92 327.208 2536.84 329.868C2531.77 332.528 2525.84 333.858 2519.07 333.858C2513.75 333.858 2508.79 332.891 2504.2 330.956C2499.72 328.9 2495.79 325.817 2492.41 321.706L2488.96 331.681H2478.99C2479.11 329.626 2479.23 327.57 2479.35 325.515C2479.47 323.459 2479.53 321.404 2479.53 319.348V203.089L2476.99 192.751H2497.49V240.27C2497.49 242.447 2497.43 244.261 2497.31 245.712C2497.19 247.042 2497.12 248.19 2497.12 249.158C2500.99 245.772 2504.92 243.354 2508.91 241.903C2513.02 240.331 2517.62 239.545 2522.7 239.545ZM2517.44 253.873C2513.69 253.873 2510.06 254.78 2506.56 256.594C2503.05 258.408 2500.03 260.644 2497.49 263.305V294.863C2497.49 299.579 2498.15 303.932 2499.48 307.922C2500.81 311.791 2502.99 314.935 2506.01 317.353C2509.16 319.771 2513.33 320.981 2518.53 320.981C2522.76 320.981 2526.33 319.892 2529.23 317.716C2532.13 315.419 2534.37 312.517 2535.94 309.01C2537.63 305.383 2538.84 301.634 2539.57 297.765C2540.29 293.775 2540.65 290.087 2540.65 286.701C2540.65 283.195 2540.23 279.568 2539.38 275.819C2538.54 271.95 2537.21 268.383 2535.39 265.118C2533.58 261.733 2531.16 259.012 2528.14 256.957C2525.24 254.901 2521.67 253.873 2517.44 253.873Z" fill="black"/>
<path d="M555.758 383.253H568.649V464.971H557.328V390.539C557.328 390.465 557.178 389.904 556.879 388.858C556.655 387.737 556.431 386.579 556.207 385.383C555.982 384.187 555.833 383.477 555.758 383.253ZM585.753 383.253H598.644V464.971H587.322V390.539C587.322 390.465 587.173 389.904 586.874 388.858C586.649 387.737 586.425 386.579 586.201 385.383C585.977 384.187 585.827 383.477 585.753 383.253ZM634.467 391.66H610.479V383.253H670.338V391.66H646.013V464.971H634.467V391.66ZM758.063 426.746H719.39V464.971H707.956V390.539C707.956 390.465 707.807 389.904 707.508 388.858C707.284 387.737 707.06 386.579 706.836 385.383C706.611 384.187 706.462 383.477 706.387 383.253H719.39V418.451H758.063V383.253H769.385V464.971H758.063V426.746ZM790.668 409.26C792.312 413.968 793.956 418.713 795.601 423.496C797.245 428.204 798.889 433.024 800.533 437.956C801.28 440.198 802.027 442.515 802.775 444.906C803.522 447.297 804.269 449.651 805.017 451.968C805.689 449.577 806.399 447.223 807.146 444.906C807.894 442.515 808.641 440.198 809.388 437.956C811.032 433.024 812.676 428.204 814.321 423.496C815.965 418.713 817.646 413.968 819.365 409.26H828.781L808.94 465.195C808.118 467.587 807.034 470.202 805.689 473.042C804.419 475.882 802.887 478.497 801.093 480.889C799.374 483.355 797.319 485.373 794.928 486.942C792.611 488.586 789.958 489.408 786.969 489.408H782.71V481.449C783.008 481.524 783.27 481.561 783.494 481.561C783.718 481.561 783.98 481.561 784.279 481.561C787.343 481.561 789.884 480.627 791.901 478.759C793.919 476.965 795.563 474.761 796.834 472.145C798.179 469.53 799.262 467.026 800.084 464.635L779.683 409.26H790.668ZM858.3 408.026C860.691 408.026 863.157 408.437 865.698 409.26C868.239 410.007 870.406 411.165 872.2 412.734C872.125 411.614 872.05 410.567 871.975 409.596C871.975 408.624 871.975 407.615 871.975 406.569V385.944L870.406 379.442H881.952V448.941C881.952 450.511 882.064 452.267 882.288 454.21C882.513 456.153 882.849 458.059 883.297 459.927C883.82 461.72 884.493 463.327 885.315 464.747L874.778 465.98C874.255 464.784 873.806 463.551 873.433 462.281C873.134 461.01 872.872 459.74 872.648 458.47C870.78 461.01 868.388 462.991 865.474 464.411C862.559 465.756 859.533 466.428 856.394 466.428C852.508 466.428 849.108 465.606 846.193 463.962C843.279 462.318 840.85 460.114 838.907 457.349C836.964 454.509 835.507 451.408 834.535 448.045C833.639 444.607 833.19 441.132 833.19 437.62C833.19 433.734 833.676 430.035 834.648 426.522C835.694 422.935 837.263 419.759 839.356 416.994C841.448 414.229 844.064 412.062 847.202 410.493C850.341 408.848 854.04 408.026 858.3 408.026ZM858.636 415.985C855.796 415.985 853.405 416.62 851.462 417.891C849.594 419.161 848.099 420.843 846.978 422.935C845.857 425.028 845.072 427.307 844.624 429.773C844.176 432.164 843.952 434.556 843.952 436.947C843.952 439.413 844.213 441.879 844.736 444.346C845.259 446.737 846.119 448.979 847.314 451.071C848.51 453.164 850.079 454.845 852.022 456.116C854.04 457.311 856.506 457.909 859.421 457.909C861.887 457.909 864.204 457.199 866.371 455.779C868.538 454.285 870.406 452.603 871.975 450.735V432.015C871.975 429.175 871.527 426.56 870.63 424.168C869.734 421.702 868.314 419.722 866.371 418.227C864.428 416.733 861.85 415.985 858.636 415.985ZM921.143 407.914C925.776 407.914 929.625 408.886 932.689 410.829C935.827 412.697 938.144 415.275 939.639 418.563C941.208 421.852 941.993 425.626 941.993 429.885C941.993 431.006 941.918 432.127 941.768 433.248C941.694 434.369 941.581 435.527 941.432 436.723H906.234C906.234 443.598 907.766 448.941 910.83 452.753C913.894 456.489 918.004 458.358 923.16 458.358C925.328 458.358 927.57 458.021 929.886 457.349C932.278 456.601 934.781 455.555 937.397 454.21L940.872 460.151C938.256 462.243 935.229 463.813 931.792 464.859C928.429 465.905 925.103 466.428 921.815 466.428C917.406 466.428 913.558 465.644 910.269 464.074C906.981 462.505 904.254 460.375 902.086 457.685C899.919 454.995 898.275 451.931 897.154 448.493C896.108 444.981 895.585 441.394 895.585 437.732C895.585 433.921 896.108 430.259 897.154 426.746C898.2 423.234 899.807 420.058 901.974 417.218C904.141 414.304 906.794 412.025 909.933 410.38C913.147 408.736 916.883 407.914 921.143 407.914ZM920.358 415.313C917.817 415.313 915.575 416.023 913.632 417.443C911.764 418.862 910.269 420.656 909.148 422.823C908.027 424.99 907.243 427.195 906.794 429.437H931.456C931.605 426.448 931.231 423.907 930.335 421.814C929.513 419.722 928.242 418.115 926.523 416.994C924.804 415.873 922.749 415.313 920.358 415.313ZM962.41 408.251C963.83 411.614 964.726 415.163 965.1 418.9C966.968 415.836 969.546 413.295 972.835 411.277C976.198 409.26 979.71 408.251 983.372 408.251L981.13 418.788C977.617 418.788 974.591 419.722 972.05 421.59C969.509 423.384 967.23 425.738 965.212 428.652V464.971H955.236V424.505C955.236 423.085 955.123 421.441 954.899 419.572C954.675 417.629 954.301 415.761 953.778 413.968C953.255 412.174 952.545 410.679 951.649 409.484L962.41 408.251ZM1012.18 407.914C1018.08 407.914 1022.57 409.521 1025.63 412.734C1028.69 415.873 1030.23 420.394 1030.23 426.298V453.537C1030.23 455.256 1030.52 456.415 1031.12 457.012C1031.72 457.535 1032.47 457.797 1033.36 457.797C1034.04 457.797 1034.75 457.722 1035.49 457.573C1036.24 457.423 1036.95 457.199 1037.62 456.9L1039.64 463.178C1038.37 463.925 1036.8 464.56 1034.93 465.083C1033.07 465.681 1031.16 465.98 1029.22 465.98C1027.12 465.98 1025.29 465.457 1023.72 464.411C1022.16 463.29 1021.15 461.272 1020.7 458.358C1018.53 460.749 1015.99 462.655 1013.08 464.074C1010.24 465.494 1007.17 466.204 1003.88 466.204C999.474 466.204 995.775 464.934 992.786 462.393C989.871 459.777 988.414 456.19 988.414 451.632C988.414 447.372 989.423 443.972 991.441 441.431C993.533 438.89 996.186 436.985 999.4 435.714C1002.69 434.369 1006.16 433.472 1009.82 433.024C1013.49 432.575 1016.92 432.351 1020.14 432.351V426.186C1020.14 424.094 1019.88 422.263 1019.35 420.693C1018.83 419.124 1017.9 417.891 1016.55 416.994C1015.21 416.023 1013.37 415.537 1011.06 415.537C1008.29 415.537 1005.6 416.135 1002.99 417.33C1000.37 418.526 997.83 420.133 995.364 422.151L990.544 415.088C993.683 412.697 997.083 410.904 1000.74 409.708C1004.48 408.512 1008.29 407.914 1012.18 407.914ZM1020.14 439.974C1018.19 439.974 1015.99 440.086 1013.52 440.31C1011.13 440.46 1008.82 440.871 1006.57 441.543C1004.33 442.216 1002.46 443.337 1000.97 444.906C999.549 446.401 998.839 448.456 998.839 451.071C998.839 453.388 999.624 455.107 1001.19 456.228C1002.84 457.349 1004.85 457.909 1007.25 457.909C1009.79 457.909 1012.03 457.199 1013.97 455.779C1015.92 454.285 1017.41 452.454 1018.46 450.287C1019.58 448.045 1020.14 445.728 1020.14 443.337V439.974ZM1073.85 408.139C1077.73 408.139 1081.13 408.961 1084.05 410.605C1086.96 412.249 1089.35 414.491 1091.22 417.33C1093.16 420.095 1094.58 423.159 1095.48 426.522C1096.45 429.885 1096.94 433.323 1096.94 436.835C1096.94 440.646 1096.42 444.308 1095.37 447.82C1094.4 451.333 1092.87 454.509 1090.77 457.349C1088.68 460.114 1086.07 462.318 1082.93 463.962C1079.86 465.606 1076.24 466.428 1072.05 466.428C1068.91 466.428 1065.89 465.831 1062.97 464.635C1060.13 463.439 1057.71 461.608 1055.69 459.142L1053.56 465.083H1047.73C1047.8 463.813 1047.88 462.542 1047.95 461.272C1048.03 459.927 1048.06 458.656 1048.06 457.461V385.831L1046.5 379.442H1058.15V409.708C1058.15 410.605 1058.12 411.427 1058.04 412.174C1058.04 412.921 1058 413.631 1057.93 414.304C1060.32 412.137 1062.75 410.567 1065.22 409.596C1067.76 408.624 1070.63 408.139 1073.85 408.139ZM1071.04 416.546C1068.65 416.546 1066.3 417.106 1063.98 418.227C1061.74 419.348 1059.8 420.768 1058.15 422.487V442.552C1058.15 445.541 1058.56 448.306 1059.39 450.847C1060.28 453.313 1061.74 455.294 1063.76 456.788C1065.78 458.283 1068.43 459.03 1071.72 459.03C1074.48 459.03 1076.8 458.32 1078.67 456.9C1080.54 455.48 1081.99 453.649 1083.04 451.408C1084.09 449.166 1084.87 446.812 1085.39 444.346C1085.92 441.805 1086.18 439.451 1086.18 437.283C1086.18 434.892 1085.88 432.501 1085.28 430.109C1084.76 427.643 1083.9 425.401 1082.7 423.384C1081.51 421.366 1079.94 419.722 1077.99 418.451C1076.13 417.181 1073.81 416.546 1071.04 416.546ZM1130.08 407.914C1135.98 407.914 1140.46 409.521 1143.53 412.734C1146.59 415.873 1148.12 420.394 1148.12 426.298V453.537C1148.12 455.256 1148.42 456.415 1149.02 457.012C1149.62 457.535 1150.37 457.797 1151.26 457.797C1151.93 457.797 1152.64 457.722 1153.39 457.573C1154.14 457.423 1154.85 457.199 1155.52 456.9L1157.54 463.178C1156.27 463.925 1154.7 464.56 1152.83 465.083C1150.96 465.681 1149.06 465.98 1147.11 465.98C1145.02 465.98 1143.19 465.457 1141.62 464.411C1140.05 463.29 1139.04 461.272 1138.6 458.358C1136.43 460.749 1133.89 462.655 1130.97 464.074C1128.13 465.494 1125.07 466.204 1121.78 466.204C1117.37 466.204 1113.67 464.934 1110.68 462.393C1107.77 459.777 1106.31 456.19 1106.31 451.632C1106.31 447.372 1107.32 443.972 1109.34 441.431C1111.43 438.89 1114.08 436.985 1117.3 435.714C1120.59 434.369 1124.06 433.472 1127.72 433.024C1131.38 432.575 1134.82 432.351 1138.04 432.351V426.186C1138.04 424.094 1137.77 422.263 1137.25 420.693C1136.73 419.124 1135.79 417.891 1134.45 416.994C1133.1 416.023 1131.27 415.537 1128.96 415.537C1126.19 415.537 1123.5 416.135 1120.88 417.33C1118.27 418.526 1115.73 420.133 1113.26 422.151L1108.44 415.088C1111.58 412.697 1114.98 410.904 1118.64 409.708C1122.38 408.512 1126.19 407.914 1130.08 407.914ZM1138.04 439.974C1136.09 439.974 1133.89 440.086 1131.42 440.31C1129.03 440.46 1126.71 440.871 1124.47 441.543C1122.23 442.216 1120.36 443.337 1118.87 444.906C1117.45 446.401 1116.74 448.456 1116.74 451.071C1116.74 453.388 1117.52 455.107 1119.09 456.228C1120.73 457.349 1122.75 457.909 1125.14 457.909C1127.68 457.909 1129.93 457.199 1131.87 455.779C1133.81 454.285 1135.31 452.454 1136.35 450.287C1137.47 448.045 1138.04 445.728 1138.04 443.337V439.974ZM1186.92 408.026C1189.32 408.026 1191.78 408.437 1194.32 409.26C1196.86 410.007 1199.03 411.165 1200.82 412.734C1200.75 411.614 1200.68 410.567 1200.6 409.596C1200.6 408.624 1200.6 407.615 1200.6 406.569V385.944L1199.03 379.442H1210.58V448.941C1210.58 450.511 1210.69 452.267 1210.91 454.21C1211.14 456.153 1211.47 458.059 1211.92 459.927C1212.45 461.72 1213.12 463.327 1213.94 464.747L1203.4 465.98C1202.88 464.784 1202.43 463.551 1202.06 462.281C1201.76 461.01 1201.5 459.74 1201.27 458.47C1199.4 461.01 1197.01 462.991 1194.1 464.411C1191.18 465.756 1188.16 466.428 1185.02 466.428C1181.13 466.428 1177.73 465.606 1174.82 463.962C1171.9 462.318 1169.48 460.114 1167.53 457.349C1165.59 454.509 1164.13 451.408 1163.16 448.045C1162.26 444.607 1161.82 441.132 1161.82 437.62C1161.82 433.734 1162.3 430.035 1163.27 426.522C1164.32 422.935 1165.89 419.759 1167.98 416.994C1170.07 414.229 1172.69 412.062 1175.83 410.493C1178.97 408.848 1182.66 408.026 1186.92 408.026ZM1187.26 415.985C1184.42 415.985 1182.03 416.62 1180.09 417.891C1178.22 419.161 1176.72 420.843 1175.6 422.935C1174.48 425.028 1173.7 427.307 1173.25 429.773C1172.8 432.164 1172.58 434.556 1172.58 436.947C1172.58 439.413 1172.84 441.879 1173.36 444.346C1173.88 446.737 1174.74 448.979 1175.94 451.071C1177.13 453.164 1178.7 454.845 1180.65 456.116C1182.66 457.311 1185.13 457.909 1188.05 457.909C1190.51 457.909 1192.83 457.199 1195 455.779C1197.16 454.285 1199.03 452.603 1200.6 450.735V432.015C1200.6 429.175 1200.15 426.56 1199.26 424.168C1198.36 421.702 1196.94 419.722 1195 418.227C1193.05 416.733 1190.47 415.985 1187.26 415.985Z" fill="black"/>
<defs>
<linearGradient id="paint0_linear_1655_2822" x1="341.164" y1="220.299" x2="341.164" y2="514.727" gradientUnits="userSpaceOnUse">
<stop offset="0.5" stop-color="#233DFE"/>
<stop offset="0.9" stop-color="#000D71"/>
</linearGradient>
<linearGradient id="paint1_linear_1655_2822" x1="172.753" y1="0" x2="172.753" y2="408.394" gradientUnits="userSpaceOnUse">
<stop offset="0.5" stop-color="#233DFE"/>
<stop offset="0.9" stop-color="#000D71"/>
</linearGradient>
<linearGradient id="paint2_linear_1655_2822" x1="173.578" y1="218.471" x2="173.578" y2="502.899" gradientUnits="userSpaceOnUse">
<stop offset="0.5" stop-color="#233DFE"/>
<stop offset="0.9" stop-color="#000D71"/>
</linearGradient>
</defs>
</svg>
