<svg xmlns="http://www.w3.org/2000/svg" width="24" height="24" fill="none" viewBox="0 0 24 24" class="pp"><path fill="#3A7FF3" fill-rule="evenodd" d="M19.5 2a.5.5 0 0 0-.5.5V5h-2.5a.5.5 0 0 0 0 1H19v2.5a.5.5 0 0 0 1 0V6h2.5a.5.5 0 0 0 0-1H20V2.5a.5.5 0 0 0-.5-.5m-14 4a.5.5 0 0 0-.5.5v.747l6.997 5.13L15.7 9.6a.5.5 0 0 1 .6.8l-4 3-.297.223-.299-.22L5 8.487V17.5a.5.5 0 0 0 .5.5h13a.5.5 0 0 0 .5-.5v-5a.5.5 0 0 1 1 0v5a1.5 1.5 0 0 1-1.5 1.5h-13A1.5 1.5 0 0 1 4 17.5v-11A1.5 1.5 0 0 1 5.5 5h7a.5.5 0 0 1 0 1z" clip-rule="evenodd"></path></svg>