<svg width="37" height="36" viewBox="0 0 37 36" fill="none" xmlns="http://www.w3.org/2000/svg">
<path d="M13.9813 10.2439C14.0864 9.75456 14.7846 9.75456 14.8896 10.2439L16.8359 19.3073C16.8743 19.486 17.0139 19.6256 17.1925 19.664L26.256 21.6102C26.7453 21.7153 26.7453 22.4135 26.256 22.5186L17.1925 24.4648C17.0139 24.5032 16.8743 24.6428 16.8359 24.8215L14.8896 33.8849C14.7846 34.3742 14.0864 34.3742 13.9813 33.8849L12.0351 24.8215C11.9967 24.6428 11.8571 24.5032 11.6784 24.4648L2.61497 22.5186C2.12565 22.4135 2.12565 21.7153 2.61497 21.6102L11.6784 19.664C11.8571 19.6256 11.9967 19.486 12.0351 19.3073L13.9813 10.2439Z" fill="#EBEBEB"/>
<path d="M28.1058 1.23373C28.1671 0.948296 28.5744 0.948296 28.6357 1.23373L29.771 6.52075C29.7934 6.62498 29.8748 6.7064 29.979 6.72879L35.266 7.8641C35.5515 7.9254 35.5515 8.33267 35.266 8.39396L29.979 9.52928C29.8748 9.55166 29.7934 9.63308 29.771 9.73732L28.6357 15.0243C28.5744 15.3098 28.1671 15.3098 28.1058 15.0243L26.9705 9.73732C26.9481 9.63308 26.8667 9.55166 26.7624 9.52928L21.4754 8.39396C21.19 8.33267 21.19 7.9254 21.4754 7.8641L26.7624 6.72879C26.8667 6.7064 26.9481 6.62498 26.9705 6.52075L28.1058 1.23373Z" fill="#EBEBEB"/>
</svg>
